<svg width="31" height="18" viewBox="0 0 31 18" fill="none" xmlns="http://www.w3.org/2000/svg">
<path d="M9.32494 -0.0330339L9.80634 0.448296C10.1254 0.767322 10.1254 1.2846 9.80634 1.60369L4.09249 7.2846L29.683 7.2846C30.1342 7.2846 30.5 7.6504 30.5 8.10157V8.78238C30.5 9.23355 30.1342 9.59934 29.683 9.59934L4.09249 9.59934L9.80634 15.2803C10.1254 15.5993 10.1254 16.1166 9.80634 16.4357L9.32494 16.917C9.00592 17.236 8.48864 17.236 8.16962 16.917L0.23927 9.01964C-0.079755 8.70061 -0.079755 8.18334 0.23927 7.86424L8.16962 -0.0331014C8.48864 -0.352127 9.00592 -0.352127 9.32494 -0.0330339V-0.0330339Z" fill="#EC0344"/>
</svg>
