<svg width="22" height="20" viewBox="0 0 22 20" fill="none" xmlns="http://www.w3.org/2000/svg">
<path d="M12.4136 2.96355L12.4136 2.96346C12.878 2.49892 13.4293 2.13042 14.036 1.879C14.6428 1.62758 15.2932 1.49817 15.95 1.49817C16.6068 1.49817 17.2572 1.62758 17.864 1.879C18.4707 2.13042 19.022 2.49892 19.4864 2.96346L19.4865 2.96363C19.9511 3.42795 20.3196 3.97925 20.571 4.58603C20.8224 5.19282 20.9518 5.84319 20.9518 6.49999C20.9518 7.1568 20.8224 7.80717 20.571 8.41395C20.3196 9.02073 19.9511 9.57204 19.4865 10.0364L19.4864 10.0364L18.4264 11.0964L11 18.5229L3.57355 11.0964L2.51355 10.0364C1.57563 9.09852 1.04871 7.82642 1.04871 6.49999C1.04871 5.17357 1.57563 3.90147 2.51355 2.96355C3.45147 2.02562 4.72357 1.4987 6.05 1.4987C7.37642 1.4987 8.64852 2.02562 9.58644 2.96355L10.6464 4.02355C10.8417 4.21881 11.1583 4.21881 11.3536 4.02355L12.4136 2.96355Z"  stroke="#EC0344" stroke-linecap="round" stroke-linejoin="round"/>
</svg>
