<svg width="327" height="377" viewBox="0 0 327 377" fill="none" xmlns="http://www.w3.org/2000/svg">
<g opacity="0.1">
<path d="M184.381 188.5C184.381 213.287 164.287 233.381 139.5 233.381C114.713 233.381 94.619 213.287 94.619 188.5C94.619 163.713 114.713 143.619 139.5 143.619C164.287 143.619 184.381 163.713 184.381 188.5Z" fill="white"/>
<path fill-rule="evenodd" clip-rule="evenodd" d="M139.5 377C234.463 377 313.025 306.778 326.091 215.429H215.689C204.599 246.806 174.675 269.286 139.5 269.286C104.325 269.286 74.4013 246.806 63.3111 215.429H-47.0911C-34.0245 306.778 44.5371 377 139.5 377ZM63.3111 161.571H-47.0911C-34.0245 70.2218 44.5371 0 139.5 0C234.463 0 313.025 70.2218 326.091 161.571H215.689C204.599 130.194 174.675 107.714 139.5 107.714C104.325 107.714 74.4013 130.194 63.3111 161.571ZM184.381 188.5C184.381 213.287 164.287 233.381 139.5 233.381C114.713 233.381 94.619 213.287 94.619 188.5C94.619 163.713 114.713 143.619 139.5 143.619C164.287 143.619 184.381 163.713 184.381 188.5Z" fill="white"/>
</g>
</svg>
