<svg width="22" height="20" viewBox="0 0 22 20" fill="none" xmlns="http://www.w3.org/2000/svg">
<path d="M12.4137 2.96355L12.4138 2.96346C12.8781 2.49892 13.4294 2.13042 14.0362 1.879C14.6429 1.62758 15.2933 1.49817 15.9501 1.49817C16.6069 1.49817 17.2573 1.62758 17.8641 1.879C18.4709 2.13042 19.0222 2.49892 19.4865 2.96346L19.4866 2.96363C19.9512 3.42795 20.3197 3.97925 20.5711 4.58603C20.8225 5.19282 20.9519 5.84319 20.9519 6.49999C20.9519 7.1568 20.8225 7.80717 20.5711 8.41395C20.3197 9.02073 19.9512 9.57204 19.4866 10.0364L19.4866 10.0364L18.4266 11.0964L11.0001 18.5229L3.57367 11.0964L2.51367 10.0364C1.57575 9.09852 1.04883 7.82642 1.04883 6.49999C1.04883 5.17357 1.57575 3.90147 2.51367 2.96355C3.4516 2.02562 4.72369 1.4987 6.05012 1.4987C7.37654 1.4987 8.64864 2.02562 9.58657 2.96355L10.6466 4.02355C10.8418 4.21881 11.1584 4.21881 11.3537 4.02355L12.4137 2.96355Z" fill="#EC0344" stroke="#EC0344" stroke-linecap="round" stroke-linejoin="round"/>
</svg>
